<svg width="22" height="22" viewBox="0 0 22 22" fill="none" xmlns="http://www.w3.org/2000/svg">
<path fill-rule="evenodd" clip-rule="evenodd" d="M5.76153 1.02344C3.14476 1.02344 1.02344 3.14476 1.02344 5.76153V16.2377C1.02344 18.8545 3.14476 20.9758 5.76153 20.9758H16.2377C18.8545 20.9758 20.9758 18.8545 20.9758 16.2377V5.76153C20.9758 3.14476 18.8545 1.02344 16.2377 1.02344H5.76153ZM0.0234375 5.76153C0.0234375 2.59247 2.59247 0.0234375 5.76153 0.0234375H16.2377C19.4068 0.0234375 21.9758 2.59247 21.9758 5.76153V16.2377C21.9758 19.4068 19.4068 21.9758 16.2377 21.9758H5.76153C2.59247 21.9758 0.0234375 19.4068 0.0234375 16.2377V5.76153ZM11.5863 7.30355C10.8184 7.18969 10.0342 7.32084 9.34523 7.67835C8.65622 8.03587 8.09748 8.60154 7.74849 9.2949C7.3995 9.98827 7.27802 10.774 7.40135 11.5404C7.52467 12.3068 7.8865 13.0148 8.43539 13.5637C8.98428 14.1126 9.69226 14.4744 10.4586 14.5977C11.225 14.721 12.0108 14.5996 12.7042 14.2506C13.3975 13.9016 13.9632 13.3428 14.3207 12.6538C14.6782 11.9648 14.8094 11.1806 14.6955 10.4128C14.5794 9.62954 14.2144 8.90443 13.6545 8.34455C13.0946 7.78466 12.3695 7.41969 11.5863 7.30355ZM8.88466 6.79073C9.76037 6.33634 10.7571 6.16965 11.733 6.31436C12.7284 6.46198 13.65 6.92584 14.3616 7.63744C15.0732 8.34903 15.5371 9.27063 15.6847 10.2661C15.8294 11.242 15.6627 12.2387 15.2083 13.1144C14.7539 13.9901 14.035 14.7002 13.1537 15.1438C12.2725 15.5874 11.2738 15.7417 10.2998 15.585C9.32573 15.4283 8.4259 14.9684 7.72828 14.2708C7.03067 13.5732 6.57078 12.6733 6.41405 11.6993C6.25731 10.7252 6.4117 9.72656 6.85525 8.84531C7.29881 7.96407 8.00895 7.24512 8.88466 6.79073ZM16.7615 4.73772C16.4854 4.73772 16.2615 4.96158 16.2615 5.23772C16.2615 5.51387 16.4854 5.73772 16.7615 5.73772H16.7715C17.0477 5.73772 17.2715 5.51387 17.2715 5.23772C17.2715 4.96158 17.0477 4.73772 16.7715 4.73772H16.7615Z" fill="white"/>
</svg>
