<svg width="14" height="14" viewBox="0 0 14 14" fill="none" xmlns="http://www.w3.org/2000/svg">
<g clip-path="url(#clip0_1249_353)">
<path fill-rule="evenodd" clip-rule="evenodd" d="M11.4851 0.379116C11.4637 0.293146 11.42 0.214384 11.3582 0.15089C11.2964 0.087395 11.2189 0.0414463 11.1336 0.0177445C11.0482 -0.00595721 10.9581 -0.00656121 10.8725 0.0159943C10.7868 0.0385499 10.7087 0.0834553 10.6461 0.146116L8.64608 2.14612C8.58509 2.20724 8.54096 2.28312 8.518 2.36636C8.49505 2.4496 8.49404 2.53737 8.51508 2.62112L8.87508 4.06512L8.86108 4.07912L6.47008 6.47012C6.3376 6.61229 6.26548 6.80034 6.2689 6.99464C6.27233 7.18894 6.35104 7.37433 6.48846 7.51174C6.62587 7.64915 6.81125 7.72786 7.00556 7.73129C7.19986 7.73472 7.3879 7.6626 7.53008 7.53012L9.92308 5.14012L9.93708 5.12512L11.3801 5.48612C11.4638 5.50716 11.5516 5.50615 11.6348 5.48319C11.7181 5.46023 11.794 5.41611 11.8551 5.35512L13.8551 3.35512C13.918 3.29254 13.9631 3.21434 13.9858 3.12855C14.0085 3.04276 14.008 2.95247 13.9843 2.86696C13.9606 2.78144 13.9145 2.70378 13.8509 2.64195C13.7872 2.58012 13.7082 2.53634 13.6221 2.51512L11.9131 2.08912L11.4851 0.379116ZM7.31708 0.759116C7.33082 0.957486 7.26522 1.15319 7.1347 1.30321C7.00419 1.45323 6.81944 1.54527 6.62108 1.55912C5.57628 1.63152 4.57422 2.00235 3.73398 2.62753C2.89374 3.25271 2.25064 4.10597 1.88109 5.08591C1.51154 6.06586 1.43108 7.13129 1.64928 8.15562C1.86747 9.17995 2.37513 10.1201 3.11196 10.8644C3.84878 11.6087 4.78378 12.1258 5.80586 12.3543C6.82794 12.5828 7.89413 12.513 8.87774 12.1534C9.86136 11.7937 10.721 11.1592 11.3547 10.3253C11.9883 9.49141 12.3692 8.49314 12.4521 7.44912C12.4679 7.25073 12.5618 7.06675 12.7132 6.93763C12.8647 6.80851 13.0612 6.74484 13.2596 6.76062C13.458 6.7764 13.6419 6.87034 13.7711 7.02177C13.9002 7.17321 13.9639 7.36973 13.9481 7.56812C13.8423 8.89833 13.3568 10.1702 12.5494 11.2327C11.742 12.2951 10.6466 13.1034 9.39327 13.5616C8.13997 14.0198 6.7815 14.1086 5.47923 13.8174C4.17696 13.5263 2.98564 12.8674 2.04681 11.9191C1.10798 10.9708 0.461109 9.77291 0.18304 8.46779C-0.0950294 7.16266 0.00739673 5.80514 0.478149 4.55651C0.948901 3.30788 1.76819 2.22063 2.83868 1.42394C3.90917 0.627237 5.18587 0.154579 6.51708 0.0621165C6.71545 0.0483778 6.91115 0.113977 7.06117 0.244492C7.21119 0.375007 7.30324 0.560754 7.31708 0.759116ZM6.64508 4.05812C6.68101 4.14984 6.69853 4.24775 6.69661 4.34625C6.6947 4.44474 6.67341 4.5419 6.63394 4.63216C6.59447 4.72242 6.53761 4.80403 6.4666 4.87231C6.39559 4.94059 6.31182 4.99421 6.22008 5.03012C5.89212 5.15876 5.60139 5.3671 5.37417 5.63631C5.14695 5.90552 4.99039 6.22711 4.91865 6.57202C4.84692 6.91692 4.86226 7.27426 4.9633 7.61175C5.06434 7.94923 5.24789 8.25622 5.49735 8.50496C5.74682 8.7537 6.05434 8.93635 6.39212 9.03641C6.7299 9.13646 7.08728 9.15077 7.43198 9.07803C7.77667 9.00529 8.0978 8.8478 8.36635 8.61979C8.6349 8.39178 8.84239 8.10045 8.97008 7.77212C9.0058 7.68032 9.05925 7.59646 9.12738 7.52533C9.19551 7.45419 9.27698 7.39717 9.36714 7.35752C9.45731 7.31787 9.5544 7.29636 9.65288 7.29423C9.75135 7.29211 9.84928 7.3094 9.94108 7.34512C10.0329 7.38084 10.1167 7.43429 10.1879 7.50241C10.259 7.57054 10.316 7.65202 10.3557 7.74218C10.3953 7.83235 10.4168 7.92944 10.419 8.02792C10.4211 8.12639 10.4038 8.22432 10.3681 8.31612C10.15 8.8768 9.79558 9.37428 9.33693 9.7636C8.87827 10.1529 8.32982 10.4218 7.74116 10.5459C7.15249 10.67 6.54218 10.6455 5.96538 10.4745C5.38859 10.3035 4.86351 9.9914 4.43761 9.5665C4.01171 9.1416 3.69842 8.61725 3.52607 8.04086C3.35372 7.46447 3.32773 6.85422 3.45047 6.26526C3.5732 5.67631 3.84078 5.12723 4.22902 4.66766C4.61726 4.20809 5.11391 3.85253 5.67408 3.63312C5.85921 3.56085 6.06545 3.56502 6.24751 3.64471C6.42957 3.7244 6.57256 3.87308 6.64508 4.05812Z" fill="white"/>
</g>
<defs>
<clipPath id="clip0_1249_353">
<rect width="14" height="14" fill="white"/>
</clipPath>
</defs>
</svg>
