<svg width="21" height="20" viewBox="0 0 21 20" fill="none" xmlns="http://www.w3.org/2000/svg">
<path d="M11.6836 7H9.68359V5H11.6836M11.6836 15H9.68359V9H11.6836M10.6836 0C9.37037 0 8.07001 0.258658 6.85676 0.761205C5.6435 1.26375 4.54111 2.00035 3.61253 2.92893C1.73716 4.8043 0.683594 7.34784 0.683594 10C0.683594 12.6522 1.73716 15.1957 3.61253 17.0711C4.54111 17.9997 5.6435 18.7362 6.85676 19.2388C8.07001 19.7413 9.37037 20 10.6836 20C13.3358 20 15.8793 18.9464 17.7547 17.0711C19.63 15.1957 20.6836 12.6522 20.6836 10C20.6836 8.68678 20.4249 7.38642 19.9224 6.17317C19.4198 4.95991 18.6832 3.85752 17.7547 2.92893C16.8261 2.00035 15.7237 1.26375 14.5104 0.761205C13.2972 0.258658 11.9968 0 10.6836 0Z" fill="#2265B0"/>
</svg>
