<svg width="40" height="36" viewBox="0 0 40 36" fill="none" xmlns="http://www.w3.org/2000/svg">
<path fill-rule="evenodd" clip-rule="evenodd" d="M18.5703 0.09547C16.3781 0.595521 14.674 1.95702 13.7268 3.96519C13.3363 4.79322 13.1632 5.46422 13.0989 6.39963L13.0472 7.153L12.3885 7.53683C8.0936 10.0398 5.27161 14.4277 4.80265 19.3323L4.74445 19.9411L4.2101 20.219C2.65227 21.0292 1.42171 22.5578 0.847444 24.396C0.673803 24.9518 0.644531 25.2268 0.644531 26.3013C0.644531 27.3758 0.673803 27.6509 0.847444 28.2066C1.58159 30.5566 3.27426 32.2493 5.62426 32.9834C6.18666 33.1591 6.44812 33.186 7.57285 33.1836C8.79821 33.181 8.91607 33.1656 9.65073 32.9115L10.4296 32.6422L10.7333 32.8815C11.8941 33.7963 13.7154 34.754 15.249 35.2564C17.7176 36.0651 20.6094 36.2222 23.1947 35.6882C25.2052 35.273 27.6905 34.1243 29.2677 32.8815L29.5715 32.6422L30.3503 32.9115C31.085 33.1656 31.2028 33.181 32.4282 33.1836C33.5539 33.186 33.8135 33.1592 34.3737 32.9833C36.7674 32.2317 38.4019 30.5972 39.1535 28.2036C39.3274 27.6498 39.3565 27.3769 39.3565 26.3013C39.3565 25.2268 39.3272 24.9518 39.1536 24.396C38.5793 22.5578 37.3488 21.0292 35.7909 20.219L35.2566 19.9411L35.1984 19.3323C34.7362 14.4983 31.9711 10.1374 27.7854 7.64093L26.9533 7.14451L26.9055 6.3449C26.8095 4.73519 26.1038 3.20836 24.8991 2.00327C24.0775 1.18157 23.2823 0.690699 22.1527 0.308256C21.4396 0.0668908 21.2084 0.0306905 20.217 0.00540215C19.4752 -0.0134775 18.9135 0.0172666 18.5703 0.09547ZM14.012 10.4032C14.5453 11.4085 15.6312 12.4384 16.7962 13.0437C17.954 13.6454 18.5649 13.787 20.0005 13.787C21.4361 13.787 22.0471 13.6454 23.2049 13.0437C24.3699 12.4384 25.4557 11.4085 25.989 10.4032C26.1009 10.1923 26.2239 10.0198 26.2622 10.0198C26.3007 10.0198 26.5736 10.1819 26.8686 10.3799C29.0558 11.8483 30.7445 13.9758 31.6667 16.4246C31.8757 16.9798 32.2403 18.4258 32.3282 19.0482C32.3723 19.3611 32.3645 19.373 32.116 19.373C31.6863 19.373 30.5574 19.6332 29.96 19.8698C27.9198 20.678 26.4601 22.2634 25.7895 24.3991C25.6156 24.9528 25.5865 25.2257 25.5865 26.3013C25.5865 27.3766 25.6157 27.6499 25.7893 28.2029C26.0383 28.9958 26.4675 29.8614 26.8789 30.4004C27.0493 30.6236 27.1883 30.8351 27.1879 30.8704C27.1855 31.0734 25.2088 32.1152 24.0504 32.524C21.5515 33.4057 18.4565 33.406 15.9507 32.5248C14.8924 32.1528 13.4009 31.3888 12.8207 30.9217C12.8015 30.9062 12.9426 30.6689 13.1345 30.3945C13.6026 29.7244 13.9662 28.9848 14.2116 28.2036C14.3855 27.6498 14.4146 27.3769 14.4146 26.3013C14.4146 24.9164 14.2788 24.2918 13.7467 23.2299C12.6687 21.0784 10.5384 19.5946 8.24974 19.4011C7.66733 19.3519 7.62195 19.3339 7.6559 19.1656C7.67608 19.0653 7.73895 18.7105 7.79568 18.377C8.02587 17.023 8.81042 15.1005 9.63342 13.8736C10.2321 12.9812 11.1429 11.9537 11.8837 11.3352C12.6498 10.6954 13.5811 10.0313 13.7219 10.0242C13.7696 10.0218 13.9001 10.1923 14.012 10.4032Z" fill="white"/>
</svg>
