<svg width="21" height="20" viewBox="0 0 21 20" fill="none" xmlns="http://www.w3.org/2000/svg">
<path d="M12.8375 11.7335L14.2403 9.30862C14.3304 9.15832 14.2904 8.96794 14.1601 8.85772L12.6771 7.69539C12.7072 7.47495 12.7272 7.24449 12.7272 7.01403C12.7272 6.78357 12.7072 6.55311 12.6771 6.32265L14.1601 5.16032C14.2904 5.0501 14.3304 4.85972 14.2403 4.70942L12.8375 2.28457C12.7473 2.13427 12.5669 2.07415 12.4066 2.13427L10.6631 2.83567C10.3024 2.55511 9.9116 2.32465 9.48074 2.14429L9.22022 0.290581C9.20341 0.209541 9.15953 0.136629 9.0958 0.0838232C9.03207 0.0310172 8.95227 0.00145758 8.86952 0H6.06391C5.89357 0 5.74327 0.13026 5.71321 0.300601L5.45269 2.15431C5.03184 2.33467 4.63104 2.56513 4.27032 2.84569L2.52683 2.14429C2.36651 2.08417 2.18615 2.14429 2.09597 2.29459L0.693167 4.71944C0.602987 4.86974 0.643067 5.06012 0.773327 5.17034L2.25629 6.33266C2.22623 6.55311 2.20619 6.78357 2.20619 7.01403C2.20619 7.24449 2.22623 7.47495 2.25629 7.70541L0.773327 8.86774C0.643067 8.97796 0.602987 9.16834 0.693167 9.31864L2.09597 11.7435C2.18615 11.8938 2.36651 11.9539 2.52683 11.8938L4.27032 11.1924C4.63104 11.4729 5.02182 11.7034 5.45269 11.8838L5.71321 13.7375C5.74327 13.8978 5.89357 14.0281 6.06391 14.0281H8.86952C9.03986 14.0281 9.19016 13.8978 9.22022 13.7275L9.48074 11.8737C9.90158 11.6934 10.3024 11.4629 10.6631 11.1824L12.4066 11.8838C12.5669 11.9439 12.7473 11.8838 12.8375 11.7335ZM7.46671 9.01804C6.36451 9.01804 5.46271 8.11623 5.46271 7.01403C5.46271 5.91182 6.36451 5.01002 7.46671 5.01002C8.56892 5.01002 9.47072 5.91182 9.47072 7.01403C9.47072 8.11623 8.56892 9.01804 7.46671 9.01804ZM20.603 16.7034L19.6411 15.9619C19.6611 15.8216 19.6811 15.6713 19.6811 15.521C19.6811 15.3707 19.6711 15.2204 19.6411 15.0802L20.593 14.3387C20.6731 14.2685 20.7032 14.1483 20.6431 14.0481L19.7413 12.495C19.6912 12.3948 19.5709 12.3647 19.4607 12.3948L18.3485 12.8457C18.118 12.6653 17.8675 12.515 17.587 12.4048L17.4166 11.2224C17.4127 11.1689 17.3889 11.1187 17.35 11.0817C17.3111 11.0446 17.2599 11.0234 17.2062 11.022H15.4126C15.3024 11.022 15.2022 11.1022 15.1922 11.2124L15.0218 12.3948C14.7513 12.515 14.4908 12.6553 14.2603 12.8357L13.1481 12.3848C13.097 12.3656 13.0408 12.3651 12.9894 12.3834C12.9381 12.4018 12.8949 12.4378 12.8675 12.485L11.9657 14.0381C11.9156 14.1383 11.9256 14.2585 12.0158 14.3287L12.9677 15.0701C12.9271 15.3627 12.9271 15.6594 12.9677 15.9519L12.0158 16.6934C11.9357 16.7635 11.9056 16.8838 11.9657 16.984L12.8675 18.5371C12.9176 18.6373 13.0379 18.6673 13.1481 18.6373L14.2603 18.1864C14.4908 18.3667 14.7413 18.517 15.0218 18.6273L15.1922 19.8096C15.2122 19.9198 15.3024 20 15.4126 20H17.2062C17.3164 20 17.4166 19.9198 17.4266 19.8096L17.597 18.6273C17.8675 18.507 18.128 18.3667 18.3485 18.1864L19.4707 18.6373C19.5709 18.6774 19.6912 18.6373 19.7513 18.5371L20.6531 16.984C20.7132 16.8938 20.6831 16.7735 20.603 16.7034ZM16.3044 16.8637C16.1267 16.8637 15.9507 16.8286 15.7866 16.7605C15.6224 16.6925 15.4733 16.5927 15.3477 16.467C15.2221 16.3413 15.1224 16.1921 15.0545 16.0279C14.9866 15.8637 14.9516 15.6877 14.9517 15.51C14.9518 15.3323 14.9868 15.1564 15.0549 14.9922C15.1229 14.8281 15.2227 14.6789 15.3484 14.5533C15.4741 14.4277 15.6233 14.3281 15.7875 14.2601C15.9517 14.1922 16.1277 14.1572 16.3054 14.1573C16.6643 14.1574 17.0084 14.3001 17.2621 14.554C17.5158 14.8079 17.6582 15.1521 17.6581 15.511C17.658 15.8699 17.5153 16.2141 17.2614 16.4677C17.0075 16.7214 16.6633 16.8639 16.3044 16.8637Z" fill="#2265B0"/>
</svg>
